<svg preserveAspectRatio="none" overflow="visible" style="display: block;" width="96.9346" height="359.196" viewBox="0 0 96.9346 359.196" fill="none" xmlns="http://www.w3.org/2000/svg">
<g id="Orbital-scale">
<path id="Vector" opacity="0.26" d="M75.1836 0.425748C51.5487 23.8955 32.7908 51.8096 19.9904 82.56C7.19 113.31 0.6 146.29 0.6 179.598C0.6 212.906 7.19 245.885 19.9904 276.636C32.7908 307.386 51.5487 335.3 75.1836 358.77" stroke="#8E959E" stroke-width="1.2"/>
<path id="Vector_2" opacity="0.3" d="M88.4892 352.268L96.5104 344.247" stroke="#8E959E" stroke-width="1.2"/>
<path id="Vector_3" opacity="0.3" d="M79.9691 343.294L85.0192 338.736" stroke="#8E959E" stroke-width="1.2"/>
<path id="Vector_4" opacity="0.3" d="M71.9101 333.912L77.187 329.611" stroke="#8E959E" stroke-width="1.2"/>
<path id="Vector_5" opacity="0.3" d="M64.335 324.13L69.8236 320.1" stroke="#8E959E" stroke-width="1.2"/>
<path id="Vector_6" opacity="0.3" d="M57.2664 313.969L62.9515 310.227" stroke="#8E959E" stroke-width="1.2"/>
<path id="Vector_7" opacity="0.3" d="M50.727 303.476L60.4945 297.723" stroke="#8E959E" stroke-width="1.2"/>
<path id="Vector_8" opacity="0.3" d="M44.7244 292.658L50.7497 289.505" stroke="#8E959E" stroke-width="1.2"/>
<path id="Vector_9" opacity="0.3" d="M39.2736 281.552L45.4577 278.709" stroke="#8E959E" stroke-width="1.2"/>
<path id="Vector_10" opacity="0.3" d="M34.3974 270.182L40.71 267.657" stroke="#8E959E" stroke-width="1.2"/>
<path id="Vector_11" opacity="0.3" d="M30.0958 258.577L36.5369 256.377" stroke="#8E959E" stroke-width="1.2"/>
<path id="Vector_12" opacity="0.3" d="M26.3914 246.776L37.2929 243.654" stroke="#8E959E" stroke-width="1.2"/>
<path id="Vector_13" opacity="0.3" d="M23.2918 234.793L29.9219 233.259" stroke="#8E959E" stroke-width="1.2"/>
<path id="Vector_14" opacity="0.3" d="M20.8045 222.675L27.5027 221.48" stroke="#8E959E" stroke-width="1.2"/>
<path id="Vector_15" opacity="0.3" d="M18.9297 210.45L25.6807 209.588" stroke="#8E959E" stroke-width="1.2"/>
<path id="Vector_16" opacity="0.3" d="M17.6747 198.142L24.4636 197.621" stroke="#8E959E" stroke-width="1.2"/>
<path id="Vector_17" opacity="0.3" d="M17.0472 185.782L28.3872 185.495" stroke="#8E959E" stroke-width="1.2"/>
<path id="Vector_18" opacity="0.3" d="M17.0472 173.414L23.8512 173.588" stroke="#8E959E" stroke-width="1.2"/>
<path id="Vector_19" opacity="0.3" d="M17.6747 161.053L24.4636 161.575" stroke="#8E959E" stroke-width="1.2"/>
<path id="Vector_20" opacity="0.3" d="M18.9297 148.745L25.6807 149.607" stroke="#8E959E" stroke-width="1.2"/>
<path id="Vector_21" opacity="0.3" d="M20.8045 136.521L27.5027 137.715" stroke="#8E959E" stroke-width="1.2"/>
<path id="Vector_22" opacity="0.3" d="M23.2918 124.402L34.3369 126.965" stroke="#8E959E" stroke-width="1.2"/>
<path id="Vector_23" opacity="0.3" d="M26.3914 112.42L32.9383 114.294" stroke="#8E959E" stroke-width="1.2"/>
<path id="Vector_24" opacity="0.3" d="M30.0958 100.618L36.5369 102.818" stroke="#8E959E" stroke-width="1.2"/>
<path id="Vector_25" opacity="0.3" d="M34.3974 89.0138L40.71 91.5389" stroke="#8E959E" stroke-width="1.2"/>
<path id="Vector_26" opacity="0.3" d="M39.2736 77.6436L45.4577 80.4861" stroke="#8E959E" stroke-width="1.2"/>
<path id="Vector_27" opacity="0.3" d="M44.7244 66.538L54.7716 71.7921" stroke="#8E959E" stroke-width="1.2"/>
<path id="Vector_28" opacity="0.3" d="M50.727 55.7196L56.586 59.1745" stroke="#8E959E" stroke-width="1.2"/>
<path id="Vector_29" opacity="0.3" d="M57.2664 45.2263L62.9515 48.9685" stroke="#8E959E" stroke-width="1.2"/>
<path id="Vector_30" opacity="0.3" d="M64.335 35.0657L69.8236 39.0951" stroke="#8E959E" stroke-width="1.2"/>
<path id="Vector_31" opacity="0.3" d="M71.9101 25.283L77.187 29.5847" stroke="#8E959E" stroke-width="1.2"/>
<path id="Vector_32" opacity="0.3" d="M79.9691 15.9011L88.3834 23.4989" stroke="#8E959E" stroke-width="1.2"/>
<path id="Vector_33" opacity="0.3" d="M88.4892 6.92735L93.3049 11.7431" stroke="#8E959E" stroke-width="1.2"/>
</g>
</svg>
